%TF.GenerationSoftware,KiCad,Pcbnew,8.0.2*%
%TF.CreationDate,2025-01-30T16:21:06+01:00*%
%TF.ProjectId,zigzag,7a69677a-6167-42e6-9b69-6361645f7063,rev?*%
%TF.SameCoordinates,Original*%
%TF.FileFunction,Soldermask,Top*%
%TF.FilePolarity,Negative*%
%FSLAX46Y46*%
G04 Gerber Fmt 4.6, Leading zero omitted, Abs format (unit mm)*
G04 Created by KiCad (PCBNEW 8.0.2) date 2025-01-30 16:21:06*
%MOMM*%
%LPD*%
G01*
G04 APERTURE LIST*
G04 Aperture macros list*
%AMRoundRect*
0 Rectangle with rounded corners*
0 $1 Rounding radius*
0 $2 $3 $4 $5 $6 $7 $8 $9 X,Y pos of 4 corners*
0 Add a 4 corners polygon primitive as box body*
4,1,4,$2,$3,$4,$5,$6,$7,$8,$9,$2,$3,0*
0 Add four circle primitives for the rounded corners*
1,1,$1+$1,$2,$3*
1,1,$1+$1,$4,$5*
1,1,$1+$1,$6,$7*
1,1,$1+$1,$8,$9*
0 Add four rect primitives between the rounded corners*
20,1,$1+$1,$2,$3,$4,$5,0*
20,1,$1+$1,$4,$5,$6,$7,0*
20,1,$1+$1,$6,$7,$8,$9,0*
20,1,$1+$1,$8,$9,$2,$3,0*%
G04 Aperture macros list end*
%ADD10R,1.200000X1.400000*%
%ADD11C,3.050000*%
%ADD12C,4.000000*%
%ADD13C,5.250000*%
%ADD14RoundRect,0.075000X0.150000X0.075000X-0.150000X0.075000X-0.150000X-0.075000X0.150000X-0.075000X0*%
%ADD15RoundRect,0.250000X-0.325000X-0.450000X0.325000X-0.450000X0.325000X0.450000X-0.325000X0.450000X0*%
%ADD16RoundRect,0.250000X-0.350000X-0.450000X0.350000X-0.450000X0.350000X0.450000X-0.350000X0.450000X0*%
%ADD17RoundRect,0.250000X0.350000X0.450000X-0.350000X0.450000X-0.350000X-0.450000X0.350000X-0.450000X0*%
%ADD18RoundRect,0.250000X0.337500X0.475000X-0.337500X0.475000X-0.337500X-0.475000X0.337500X-0.475000X0*%
%ADD19RoundRect,0.250000X-0.337500X-0.475000X0.337500X-0.475000X0.337500X0.475000X-0.337500X0.475000X0*%
%ADD20R,0.850000X0.850000*%
%ADD21O,0.850000X0.850000*%
%ADD22C,0.650000*%
%ADD23O,2.100000X1.000000*%
%ADD24O,1.600000X1.000000*%
%ADD25RoundRect,0.250000X0.475000X-0.337500X0.475000X0.337500X-0.475000X0.337500X-0.475000X-0.337500X0*%
%ADD26RoundRect,0.250000X-0.475000X0.337500X-0.475000X-0.337500X0.475000X-0.337500X0.475000X0.337500X0*%
%ADD27RoundRect,0.075000X0.075000X0.662500X-0.075000X0.662500X-0.075000X-0.662500X0.075000X-0.662500X0*%
%ADD28RoundRect,0.075000X0.662500X0.075000X-0.662500X0.075000X-0.662500X-0.075000X0.662500X-0.075000X0*%
%ADD29RoundRect,0.375000X-0.625000X-0.375000X0.625000X-0.375000X0.625000X0.375000X-0.625000X0.375000X0*%
%ADD30RoundRect,0.500000X-0.500000X-1.400000X0.500000X-1.400000X0.500000X1.400000X-0.500000X1.400000X0*%
G04 APERTURE END LIST*
D10*
%TO.C,Y1*%
X174068000Y-142494000D03*
X174068000Y-144694000D03*
X175768000Y-144694000D03*
X175768000Y-142494000D03*
%TD*%
D11*
%TO.C,K37*%
X138214000Y-141844000D03*
D12*
X138214000Y-157084000D03*
D13*
X188214000Y-148844000D03*
D11*
X238214000Y-141844000D03*
D12*
X238214000Y-157084000D03*
%TD*%
D14*
%TO.C,U4*%
X154116000Y-147312000D03*
X154116000Y-146812000D03*
X154116000Y-146312000D03*
X152716000Y-146312000D03*
X152716000Y-147312000D03*
%TD*%
D15*
%TO.C,SW1*%
X131318000Y-148844000D03*
X133368000Y-148844000D03*
%TD*%
D16*
%TO.C,R5*%
X177070000Y-151892000D03*
X179070000Y-151892000D03*
%TD*%
D17*
%TO.C,R4*%
X138906000Y-148844000D03*
X136906000Y-148844000D03*
%TD*%
D18*
%TO.C,C12*%
X176065000Y-146812000D03*
X173990000Y-146812000D03*
%TD*%
D19*
%TO.C,C11*%
X173990000Y-140208000D03*
X176065000Y-140208000D03*
%TD*%
D18*
%TO.C,C1*%
X71903500Y-42672000D03*
X69828500Y-42672000D03*
%TD*%
D20*
%TO.C,J2*%
X174625000Y-150987500D03*
D21*
X174625000Y-151987500D03*
X174625000Y-152987500D03*
X174625000Y-153987500D03*
X174625000Y-154987500D03*
%TD*%
D22*
%TO.C,J1*%
X62610000Y-41238000D03*
X62610000Y-35458000D03*
D23*
X63140000Y-42668000D03*
D24*
X58960000Y-42668000D03*
D23*
X63140000Y-34028000D03*
D24*
X58960000Y-34028000D03*
%TD*%
D13*
%TO.C,K45*%
X209677000Y-91694000D03*
%TD*%
D25*
%TO.C,C8*%
X170787354Y-146083500D03*
X170787354Y-144008500D03*
%TD*%
D13*
%TO.C,K63*%
X281114500Y-129794000D03*
%TD*%
D25*
%TO.C,C9*%
X168755354Y-146083500D03*
X168755354Y-144008500D03*
%TD*%
D13*
%TO.C,K65*%
X295402000Y-53594000D03*
%TD*%
%TO.C,K82*%
X352552000Y-91694000D03*
%TD*%
%TO.C,K91*%
X371602000Y-148844000D03*
%TD*%
%TO.C,K96*%
X390652000Y-129794000D03*
%TD*%
%TO.C,K93*%
X390652000Y-72644000D03*
%TD*%
%TO.C,K67*%
X285877000Y-91694000D03*
%TD*%
%TO.C,K98*%
X409702000Y-53594000D03*
%TD*%
D26*
%TO.C,C7*%
X166215354Y-152412000D03*
X166215354Y-154487000D03*
%TD*%
D13*
%TO.C,K1*%
X66802000Y-53594000D03*
%TD*%
%TO.C,K40*%
X190627000Y-91694000D03*
%TD*%
%TO.C,K12*%
X104902000Y-72644000D03*
%TD*%
%TO.C,K88*%
X371602000Y-91694000D03*
%TD*%
%TO.C,K64*%
X276352000Y-148844000D03*
%TD*%
%TO.C,K5*%
X69183250Y-129794000D03*
%TD*%
%TO.C,K79*%
X333502000Y-148844000D03*
%TD*%
%TO.C,K26*%
X147764500Y-129794000D03*
%TD*%
%TO.C,K47*%
X223964500Y-129794000D03*
%TD*%
%TO.C,K6*%
X69183250Y-148844000D03*
%TD*%
%TO.C,K68*%
X290639500Y-110744000D03*
%TD*%
%TO.C,K24*%
X133477000Y-91694000D03*
%TD*%
%TO.C,K27*%
X162052000Y-53594000D03*
%TD*%
%TO.C,K48*%
X238252000Y-53594000D03*
%TD*%
%TO.C,K72*%
X309689500Y-110744000D03*
%TD*%
%TO.C,K92*%
X390652000Y-53594000D03*
%TD*%
%TO.C,K70*%
X314452000Y-53594000D03*
%TD*%
%TO.C,K10*%
X92995750Y-148844000D03*
%TD*%
%TO.C,K50*%
X228727000Y-91694000D03*
%TD*%
%TO.C,K57*%
X262064500Y-129794000D03*
%TD*%
%TO.C,K31*%
X166814500Y-129794000D03*
%TD*%
%TO.C,K71*%
X304927000Y-91694000D03*
%TD*%
%TO.C,K87*%
X371602000Y-72644000D03*
%TD*%
%TO.C,K8*%
X85852000Y-72644000D03*
%TD*%
%TO.C,K9*%
X90614500Y-129794000D03*
%TD*%
%TO.C,K16*%
X123952000Y-53594000D03*
%TD*%
%TO.C,K74*%
X314452000Y-148844000D03*
%TD*%
%TO.C,K81*%
X352552000Y-72644000D03*
%TD*%
%TO.C,K36*%
X185864500Y-129794000D03*
%TD*%
%TO.C,K58*%
X257302000Y-148844000D03*
%TD*%
%TO.C,K94*%
X390652000Y-91694000D03*
%TD*%
%TO.C,K44*%
X219202000Y-72644000D03*
%TD*%
%TO.C,K80*%
X352552000Y-53594000D03*
%TD*%
D12*
%TO.C,K76*%
X335877000Y-80884000D03*
D11*
X335877000Y-65644000D03*
D13*
X323977000Y-72644000D03*
D12*
X312077000Y-80884000D03*
D11*
X312077000Y-65644000D03*
%TD*%
D13*
%TO.C,K17*%
X123952000Y-72644000D03*
%TD*%
%TO.C,K53*%
X257302000Y-53594000D03*
%TD*%
%TO.C,K29*%
X152527000Y-91694000D03*
%TD*%
D26*
%TO.C,C4*%
X157325354Y-152390500D03*
X157325354Y-154465500D03*
%TD*%
D13*
%TO.C,K2*%
X66802000Y-72644000D03*
%TD*%
D12*
%TO.C,K101*%
X417942000Y-151219000D03*
X417942000Y-127419000D03*
D13*
X409702000Y-139319000D03*
D11*
X402702000Y-151219000D03*
X402702000Y-127419000D03*
%TD*%
D13*
%TO.C,K60*%
X276352000Y-72644000D03*
%TD*%
%TO.C,K73*%
X307308250Y-129794000D03*
%TD*%
%TO.C,K15*%
X109664500Y-129794000D03*
%TD*%
%TO.C,K38*%
X200152000Y-53594000D03*
%TD*%
%TO.C,K69*%
X295402000Y-148844000D03*
%TD*%
%TO.C,K62*%
X271589500Y-110744000D03*
%TD*%
D26*
%TO.C,C10*%
X155293354Y-152390500D03*
X155293354Y-154465500D03*
%TD*%
D13*
%TO.C,K33*%
X181102000Y-72644000D03*
%TD*%
%TO.C,K84*%
X352552000Y-129794000D03*
%TD*%
%TO.C,K95*%
X390652000Y-110744000D03*
%TD*%
%TO.C,K75*%
X333502000Y-53594000D03*
%TD*%
%TO.C,K14*%
X100139500Y-110744000D03*
%TD*%
%TO.C,K97*%
X390652000Y-148844000D03*
%TD*%
%TO.C,K55*%
X247777000Y-91694000D03*
%TD*%
%TO.C,K54*%
X257302000Y-72644000D03*
%TD*%
%TO.C,K90*%
X371602000Y-129794000D03*
%TD*%
%TO.C,K83*%
X352552000Y-110744000D03*
%TD*%
%TO.C,K78*%
X333502000Y-129794000D03*
%TD*%
%TO.C,K56*%
X252539500Y-110744000D03*
%TD*%
D25*
%TO.C,C6*%
X157071354Y-142760000D03*
X157071354Y-140685000D03*
%TD*%
D13*
%TO.C,K20*%
X128714500Y-129794000D03*
%TD*%
%TO.C,K13*%
X95377000Y-91694000D03*
%TD*%
%TO.C,K86*%
X371602000Y-53594000D03*
%TD*%
%TO.C,K11*%
X104902000Y-53594000D03*
%TD*%
%TO.C,K19*%
X119189500Y-110744000D03*
%TD*%
%TO.C,K30*%
X157289500Y-110744000D03*
%TD*%
%TO.C,K85*%
X352552000Y-148844000D03*
%TD*%
%TO.C,K46*%
X214439500Y-110744000D03*
%TD*%
%TO.C,K35*%
X176339500Y-110744000D03*
%TD*%
%TO.C,K77*%
X331120750Y-101219000D03*
%TD*%
%TO.C,K21*%
X116808250Y-148844000D03*
%TD*%
%TO.C,K4*%
X73945750Y-110744000D03*
%TD*%
%TO.C,K66*%
X295402000Y-72644000D03*
%TD*%
%TO.C,K99*%
X409702000Y-72644000D03*
%TD*%
%TO.C,K42*%
X204914500Y-129794000D03*
%TD*%
%TO.C,K52*%
X243014500Y-129794000D03*
%TD*%
%TO.C,K61*%
X266827000Y-91694000D03*
%TD*%
%TO.C,K25*%
X138239500Y-110744000D03*
%TD*%
%TO.C,K49*%
X238252000Y-72644000D03*
%TD*%
%TO.C,K22*%
X143002000Y-53594000D03*
%TD*%
%TO.C,K34*%
X171577000Y-91694000D03*
%TD*%
D26*
%TO.C,C5*%
X168501354Y-151142000D03*
X168501354Y-153217000D03*
%TD*%
D12*
%TO.C,K100*%
X417942000Y-113119000D03*
X417942000Y-89319000D03*
D13*
X409702000Y-101219000D03*
D11*
X402702000Y-113119000D03*
X402702000Y-89319000D03*
%TD*%
D13*
%TO.C,K59*%
X276352000Y-53594000D03*
%TD*%
%TO.C,K41*%
X195389500Y-110744000D03*
%TD*%
%TO.C,K18*%
X114427000Y-91694000D03*
%TD*%
%TO.C,K32*%
X181102000Y-53594000D03*
%TD*%
%TO.C,K28*%
X162052000Y-72644000D03*
%TD*%
%TO.C,K43*%
X219202000Y-53594000D03*
%TD*%
%TO.C,K23*%
X143002000Y-72644000D03*
%TD*%
%TO.C,K3*%
X71564500Y-91694000D03*
%TD*%
%TO.C,K7*%
X85852000Y-53594000D03*
%TD*%
%TO.C,K39*%
X200152000Y-72644000D03*
%TD*%
%TO.C,K89*%
X371602000Y-110744000D03*
%TD*%
%TO.C,K51*%
X233489500Y-110744000D03*
%TD*%
D27*
%TO.C,U1*%
X164604354Y-151748500D03*
X164104354Y-151748500D03*
X163604354Y-151748500D03*
X163104354Y-151748500D03*
X162604354Y-151748500D03*
X162104354Y-151748500D03*
X161604354Y-151748500D03*
X161104354Y-151748500D03*
X160604354Y-151748500D03*
X160104354Y-151748500D03*
X159604354Y-151748500D03*
X159104354Y-151748500D03*
D28*
X157691854Y-150336000D03*
X157691854Y-149836000D03*
X157691854Y-149336000D03*
X157691854Y-148836000D03*
X157691854Y-148336000D03*
X157691854Y-147836000D03*
X157691854Y-147336000D03*
X157691854Y-146836000D03*
X157691854Y-146336000D03*
X157691854Y-145836000D03*
X157691854Y-145336000D03*
X157691854Y-144836000D03*
D27*
X159104354Y-143423500D03*
X159604354Y-143423500D03*
X160104354Y-143423500D03*
X160604354Y-143423500D03*
X161104354Y-143423500D03*
X161604354Y-143423500D03*
X162104354Y-143423500D03*
X162604354Y-143423500D03*
X163104354Y-143423500D03*
X163604354Y-143423500D03*
X164104354Y-143423500D03*
X164604354Y-143423500D03*
D28*
X166016854Y-144836000D03*
X166016854Y-145336000D03*
X166016854Y-145836000D03*
X166016854Y-146336000D03*
X166016854Y-146836000D03*
X166016854Y-147336000D03*
X166016854Y-147836000D03*
X166016854Y-148336000D03*
X166016854Y-148836000D03*
X166016854Y-149336000D03*
X166016854Y-149836000D03*
X166016854Y-150336000D03*
%TD*%
D18*
%TO.C,C2*%
X69388000Y-40457500D03*
X71463000Y-40457500D03*
%TD*%
D29*
%TO.C,U3*%
X75336000Y-40654000D03*
D30*
X81636000Y-38354000D03*
D29*
X75336000Y-38354000D03*
X75336000Y-36054000D03*
%TD*%
D18*
%TO.C,C3*%
X69388000Y-38171500D03*
X71463000Y-38171500D03*
%TD*%
M02*
